<svg xmlns="http://www.w3.org/2000/svg" width="1920" height="1080" viewBox="0 0 1920 1080">
  <g fill="#4a1a2e" stroke="none">

    <!-- LINE 1: Flowing across top third -->

    <!-- Main wide baseline ribbon -->
    <path d="
      M -20 200
      C 200 160, 500 140, 800 180
      C 1100 220, 1400 260, 1600 230
      C 1750 210, 1880 190, 1940 210
      L 1940 310
      C 1880 290, 1750 310, 1600 330
      C 1400 360, 1100 320, 800 280
      C 500 240, 200 260, -20 300
      Z
    "/>

    <!-- Tall accent left -->
    <path d="
      M 260 170 C 248 168, 240 150, 238 130
      L 232 20 C 230 5, 242 -5, 258 -5
      L 282 -5 C 298 -5, 308 5, 306 20
      L 300 130 C 298 150, 290 168, 278 170 Z
    "/>

    <!-- Tall accent center-right -->
    <path d="
      M 1250 245 C 1238 242, 1228 222, 1226 195
      L 1220 50 C 1218 30, 1230 18, 1245 18
      L 1275 18 C 1290 18, 1300 30, 1298 50
      L 1292 195 C 1290 222, 1278 242, 1268 245 Z
    "/>

    <!-- Graceful descending bowl from left -->
    <path d="
      M 500 290
      C 460 340, 400 410, 395 460
      C 390 510, 425 540, 475 530
      C 525 520, 555 475, 555 430
      C 555 385, 530 340, 500 300 Z
    "/>

    <!-- Sweeping tail from right end -->
    <path d="
      M 1700 310
      C 1750 350, 1820 410, 1850 450
      C 1880 490, 1870 520, 1830 515
      C 1790 510, 1760 475, 1760 440
      C 1760 405, 1740 360, 1700 320 Z
    "/>

    <!-- Dots line 1 -->
    <circle cx="275" cy="0" r="12"/>
    <circle cx="1260" cy="5" r="11"/>
    <circle cx="1235" cy="2" r="7"/>
    <circle cx="450" cy="490" r="9"/>


    <!-- LINE 2: Flowing across middle -->

    <!-- Main wide baseline ribbon -->
    <path d="
      M -20 560
      C 250 510, 550 490, 850 530
      C 1150 570, 1350 620, 1580 600
      C 1730 588, 1870 570, 1940 585
      L 1940 685
      C 1870 670, 1730 688, 1580 700
      C 1350 720, 1150 670, 850 630
      C 550 590, 250 610, -20 660
      Z
    "/>

    <!-- Tall accent far left -->
    <path d="
      M 120 535 C 108 532, 98 515, 96 490
      L 90 360 C 88 340, 100 328, 115 328
      L 140 328 C 155 328, 165 340, 163 360
      L 157 490 C 155 515, 143 532, 133 535 Z
    "/>

    <!-- Tall accent center -->
    <path d="
      M 750 525 C 738 522, 728 500, 726 470
      L 720 320 C 718 298, 730 285, 745 285
      L 775 285 C 790 285, 800 298, 798 320
      L 792 470 C 790 500, 778 522, 768 525 Z
    "/>

    <!-- Tall accent right -->
    <path d="
      M 1450 610 C 1438 607, 1428 588, 1426 562
      L 1420 420 C 1418 400, 1430 388, 1445 388
      L 1470 388 C 1485 388, 1495 400, 1493 420
      L 1487 562 C 1485 588, 1473 607, 1463 610 Z
    "/>

    <!-- Wide descending bowl center -->
    <path d="
      M 950 660
      C 900 720, 820 800, 815 860
      C 810 920, 860 950, 930 935
      C 1000 920, 1040 870, 1045 815
      C 1050 760, 1010 710, 960 670 Z
    "/>

    <!-- Left sweeping curve -->
    <path d="
      M 300 640
      C 260 690, 190 760, 170 810
      C 150 860, 185 890, 235 880
      C 285 870, 320 830, 325 785
      C 330 740, 310 690, 290 650 Z
    "/>

    <!-- Right extending flourish -->
    <path d="
      M 1650 690
      C 1720 730, 1810 780, 1860 800
      C 1910 820, 1940 800, 1940 770
      L 1940 810
      C 1940 840, 1910 855, 1860 840
      C 1790 815, 1700 760, 1640 720 Z
    "/>

    <!-- Dots line 2 -->
    <circle cx="140" cy="315" r="11"/>
    <circle cx="770" cy="270" r="12"/>
    <circle cx="745" cy="268" r="7"/>
    <circle cx="1460" cy="375" r="10"/>
    <circle cx="890" cy="900" r="8"/>


    <!-- LINE 3: Flowing across bottom third -->

    <!-- Main wide baseline ribbon -->
    <path d="
      M -20 880
      C 220 830, 500 810, 800 850
      C 1050 880, 1300 930, 1550 910
      C 1720 898, 1860 880, 1940 895
      L 1940 990
      C 1860 975, 1720 993, 1550 1005
      C 1300 1025, 1050 975, 800 945
      C 500 905, 220 925, -20 975
      Z
    "/>

    <!-- Tall accent left -->
    <path d="
      M 380 840 C 368 838, 358 818, 356 790
      L 350 660 C 348 640, 360 628, 375 628
      L 400 628 C 415 628, 425 640, 423 660
      L 417 790 C 415 818, 403 838, 393 840 Z
    "/>

    <!-- Tall accent center-right -->
    <path d="
      M 1150 910 C 1138 907, 1128 888, 1126 862
      L 1120 720 C 1118 700, 1130 688, 1145 688
      L 1170 688 C 1185 688, 1195 700, 1193 720
      L 1187 862 C 1185 888, 1173 907, 1163 910 Z
    "/>

    <!-- Short accent far right -->
    <path d="
      M 1750 905 C 1740 903, 1732 890, 1730 872
      L 1726 790 C 1724 775, 1734 766, 1746 766
      L 1766 766 C 1778 766, 1786 775, 1784 790
      L 1780 872 C 1778 890, 1770 903, 1760 905 Z
    "/>

    <!-- Descending flourish trailing off bottom -->
    <path d="
      M 600 960
      C 560 1010, 500 1060, 490 1090
      L 540 1090
      C 548 1065, 590 1025, 620 980 Z
    "/>

    <path d="
      M 1400 1000
      C 1430 1040, 1470 1070, 1490 1090
      L 1440 1090
      C 1425 1075, 1400 1050, 1380 1020 Z
    "/>

    <!-- Dots line 3 -->
    <circle cx="395" cy="615" r="11"/>
    <circle cx="1160" cy="675" r="10"/>
    <circle cx="1135" cy="672" r="6"/>
    <circle cx="1760" cy="752" r="9"/>

  </g>
</svg>